<svg xmlns="http://www.w3.org/2000/svg" viewBox="0 0 512 475.76912"><path d="M470.12955,44.72448a139.90329,139.90329,0,0,0-205.05244-.01822l-9.03951,9.552-9.03951-9.552a140.00126,140.00126,0,0,0-197.85815-7.2672q-3.76494,3.49958-7.26721,7.2672a157.01849,157.01849,0,0,0,0,213.50654L242.75335,470.05424a18.29841,18.29841,0,0,0,25.86837.7012q.36026-.341.70121-.7012l200.8077-211.84145A157.003,157.003,0,0,0,470.12955,44.72448ZM443.65217,233.01561H443.634L256.0376,430.877,68.42408,233.01561a119.98332,119.98332,0,0,1,0-163.1304A103.42364,103.42364,0,0,1,214.568,64.0054q3.05731,2.8209,5.87981,5.87981l22.30553,23.5321a18.84821,18.84821,0,0,0,26.56958,0l22.30555-23.51387a103.42365,103.42365,0,0,1,146.14392-5.87981q3.05732,2.82089,5.87982,5.87981C486.67428,115.98983,486.98951,187.223,443.65217,233.01561Z" transform="translate(0 0)"/></svg>