<svg width="30" height="30" viewBox="0 0 30 30" fill="none" xmlns="http://www.w3.org/2000/svg">
<g clip-path="url(#clip0_460_6062)">
<path d="M29.2027 10.73L19.9801 9.32126L15.8464 0.516257C15.5376 -0.141243 14.4589 -0.141243 14.1501 0.516257L10.0176 9.32126L0.795148 10.73C0.624869 10.7562 0.465091 10.8287 0.333356 10.9398C0.201621 11.0508 0.103025 11.1959 0.048391 11.3593C-0.00624246 11.5227 -0.0147998 11.698 0.0236586 11.8659C0.062117 12.0338 0.146104 12.1879 0.266398 12.3113L6.9664 19.1788L5.38265 28.8875C5.35437 29.0611 5.37551 29.2392 5.44367 29.4014C5.51182 29.5636 5.62423 29.7033 5.76805 29.8046C5.91187 29.906 6.0813 29.9648 6.25696 29.9743C6.43262 29.9839 6.60742 29.9438 6.7614 29.8588L14.9989 25.3063L23.2364 29.86C23.3904 29.9451 23.5652 29.9851 23.7408 29.9756C23.9165 29.966 24.0859 29.9072 24.2297 29.8059C24.3736 29.7046 24.486 29.5648 24.5541 29.4027C24.6223 29.2405 24.6434 29.0624 24.6152 28.8888L23.0314 19.18L29.7314 12.3125C29.852 12.1892 29.9363 12.035 29.975 11.8669C30.0137 11.6988 30.0052 11.5233 29.9505 11.3597C29.8959 11.1961 29.7971 11.0507 29.6652 10.9396C29.5332 10.8285 29.3732 10.756 29.2027 10.73Z" fill="#EAEAEA"/>
</g>
<defs>
<clipPath id="clip0_460_6062">
<rect width="30" height="30" fill="white"/>
</clipPath>
</defs>
</svg>
