<svg width="40" height="40" viewBox="0 0 40 40" fill="none" xmlns="http://www.w3.org/2000/svg">
<path d="M34.6338 32.8662L27.1725 25.405C29.0027 23.1774 30.0022 20.3831 30 17.5C30 10.6075 24.3925 5 17.5 5C10.6075 5 5 10.6075 5 17.5C5 24.3925 10.6075 30 17.5 30C20.4975 30 23.25 28.9375 25.405 27.1725L32.8662 34.6338C32.9823 34.7498 33.1201 34.8419 33.2717 34.9047C33.4234 34.9675 33.5859 34.9998 33.75 34.9998C33.9141 34.9998 34.0766 34.9675 34.2283 34.9047C34.3799 34.8419 34.5177 34.7498 34.6338 34.6338C34.7498 34.5177 34.8419 34.3799 34.9047 34.2283C34.9675 34.0766 34.9998 33.9141 34.9998 33.75C34.9998 33.5859 34.9675 33.4234 34.9047 33.2717C34.8419 33.1201 34.7498 32.9823 34.6338 32.8662ZM7.5 17.5C7.5 11.9863 11.9863 7.5 17.5 7.5C23.0138 7.5 27.5 11.9863 27.5 17.5C27.5 23.0138 23.0138 27.5 17.5 27.5C11.9863 27.5 7.5 23.0138 7.5 17.5Z" fill="white"/>
</svg>
