<svg width="24" height="24" viewBox="0 0 24 24" fill="none" xmlns="http://www.w3.org/2000/svg">
<path d="M12 16.5C11.9015 16.5001 11.804 16.4807 11.713 16.443C11.622 16.4053 11.5394 16.35 11.4698 16.2802L3.9698 8.78024C3.67673 8.48717 3.67673 8.01261 3.9698 7.71974C4.26286 7.42686 4.73742 7.42667 5.0303 7.71974L12 14.6895L18.9698 7.71974C19.2629 7.42667 19.7374 7.42667 20.0303 7.71974C20.3232 8.0128 20.3234 8.48736 20.0303 8.78024L12.5303 16.2802C12.4607 16.35 12.3781 16.4053 12.2871 16.443C12.1961 16.4807 12.0985 16.5001 12 16.5Z" fill="#1B1B1B"/>
</svg>
